<?xml version="1.0" standalone="no"?><!DOCTYPE svg PUBLIC "-//W3C//DTD SVG 1.1//EN" "http://www.w3.org/Graphics/SVG/1.1/DTD/svg11.dtd"><svg t="1696090914228" class="icon" viewBox="0 0 1024 1024" version="1.1" xmlns="http://www.w3.org/2000/svg" p-id="5772" xmlns:xlink="http://www.w3.org/1999/xlink" width="200" height="200"><path d="M787.03 160.98h64.74c35.75 0 64.74 28.98 64.74 64.74v582.64c0 35.75-28.98 64.74-64.74 64.74h-64.74c-35.75 0-64.74-28.98-64.74-64.74V225.71c0.01-35.75 28.99-64.73 64.74-64.73z" fill="#4BBB95" opacity=".3" p-id="5773"></path><path d="M714.33 952.98H233.75c-69.81-0.09-126.38-56.66-126.47-126.47V194.19c0.09-69.81 56.66-126.38 126.47-126.47h480.58c69.81 0.09 126.38 56.66 126.47 126.47v632.33c-0.09 69.81-56.66 126.38-126.47 126.46zM271.68 598.9c-20.95-0.01-37.94 16.97-37.95 37.92-0.01 20.95 16.97 37.94 37.92 37.95h126.51c20.95 0.01 37.94-16.97 37.95-37.92 0.01-20.95-16.97-37.94-37.92-37.95H271.68z m0-151.75c-20.95 0.01-37.93 17-37.92 37.95 0.01 20.94 16.98 37.91 37.92 37.92h303.53c20.95 0.01 37.94-16.97 37.95-37.92 0.01-20.95-16.97-37.94-37.92-37.95H271.68z m-11.29-151.78c-20.95-0.01-37.94 16.97-37.95 37.92-0.01 20.95 16.97 37.94 37.92 37.95h430.03c20.95 0.01 37.94-16.97 37.95-37.92 0.01-20.95-16.97-37.94-37.92-37.95H260.39z" fill="#4BBB95" p-id="5774"></path></svg>