<?xml version="1.0" standalone="no"?><!DOCTYPE svg PUBLIC "-//W3C//DTD SVG 1.1//EN" "http://www.w3.org/Graphics/SVG/1.1/DTD/svg11.dtd"><svg t="1699372759985" class="icon" viewBox="0 0 1024 1024" version="1.1" xmlns="http://www.w3.org/2000/svg" p-id="18957" xmlns:xlink="http://www.w3.org/1999/xlink" width="200" height="200"><path d="M68.352 660.906667v172.202666c27.050667 10.154667 64.938667 16.384 106.922667 16.384 41.984 0 79.872-6.314667 106.922666-16.384V660.906667L175.274667 572.672 68.352 660.906667z" fill="#FFBCC5" p-id="18958"></path><path d="M74.154667 835.157333c5.376 1.792 11.008 3.413333 17.066666 4.949334V642.048l-22.869333 18.858667v172.202666c1.706667 0.682667 3.498667 1.28 5.290667 1.877334 0.170667 0.085333 0.341333 0.170667 0.512 0.170666z" fill="#FFE3E3" p-id="18959"></path><path d="M225.962667 614.485333v231.765334c10.581333-1.365333 20.650667-3.242667 29.952-5.376l1.024-0.256c1.877333-0.426667 3.669333-0.938667 5.461333-1.365334 0.512-0.170667 1.024-0.256 1.621333-0.426666 1.621333-0.426667 3.157333-0.853333 4.693334-1.28l1.792-0.512c1.536-0.426667 2.986667-0.938667 4.437333-1.365334 0.512-0.170667 1.109333-0.341333 1.621333-0.512 1.962667-0.682667 3.84-1.28 5.717334-2.048V660.906667l-56.32-46.421334z" fill="#FF9797" p-id="18960"></path><path d="M294.656 693.845333L175.274667 595.285333l-119.466667 98.56-22.186667-26.88 141.653334-116.906666 141.568 116.906666z" fill="#05A336" p-id="18961"></path><path d="M175.274667 550.058667v45.226666l119.381333 98.56 22.186667-26.88z" fill="#05A336" p-id="18962"></path><path d="M134.997333 729.6v117.504c12.117333 1.536 25.088 2.389333 38.656 2.389333 9.216 0 18.261333-0.426667 26.88-1.109333V730.453333c-9.301333 1.024-19.114667 1.621333-29.354666 1.621334-12.8 0-25.002667-0.853333-36.181334-2.474667z" fill="#FFF1B8" p-id="18963"></path><path d="M179.797333 849.493333c7.082667-0.170667 13.994667-0.512 20.650667-1.109333V730.453333c-6.656 0.768-13.568 1.194667-20.650667 1.450667v117.589333z" fill="#FCE665" p-id="18964"></path><path d="M237.738667 347.989333l-28.672-4.096-12.629334-25.002666-12.629333 25.002666-28.672 4.096 20.736 19.712-4.864 27.648 25.429333-13.056L221.866667 395.434667l-4.864-27.648 20.736-19.797334z" fill="#FFBC00" p-id="18965"></path><path d="M217.002667 367.786667l4.864 27.648-25.429334-13.056v-63.488l12.714667 25.002666 28.586667 4.096z" fill="#E59200" p-id="18966"></path><path d="M88.576 252.757333l-34.218667 19.968-34.730666-16.042666 7.68 37.546666L0 322.986667l39.082667 3.498666 18.261333 33.792 16.128-35.584 38.314667-7.594666-28.757334-25.514667 5.546667-38.826667z" fill="#FCE665" p-id="18967"></path><path d="M83.114667 291.584l28.757333 25.514667-38.314667 7.68-53.930666-68.096 34.816 16.128 34.133333-20.053334z" fill="#FFBC00" p-id="18968"></path><path d="M192 404.565333h8.96v109.653334H192z" fill="#7CE597" p-id="18969"></path><path d="M270.250667 225.536m-16.64 0a16.64 16.64 0 1 0 33.28 0 16.64 16.64 0 1 0-33.28 0Z" fill="#05A336" p-id="18970"></path><path d="M160.597333 514.218667l-13.482666-0.426667c3.754667-117.333333-68.010667-168.192-68.693334-168.704l0.682667 0.341333 5.461333-12.288c0.768 0.341333 80.042667 53.504 76.032 181.077334z" fill="#7CE597" p-id="18971"></path><path d="M100.522667 435.029333m-11.349334 0a11.349333 11.349333 0 1 0 22.698667 0 11.349333 11.349333 0 1 0-22.698667 0Z" fill="#05A336" p-id="18972"></path><path d="M741.802667 660.906667v172.202666c27.050667 10.154667 64.938667 16.384 106.922666 16.384 41.984 0 79.872-6.314667 106.922667-16.384V660.906667L848.725333 572.672 741.802667 660.906667z" fill="#FFBCC5" p-id="18973"></path><path d="M747.605333 835.157333c5.376 1.792 11.008 3.413333 17.066667 4.949334V642.048l-22.869333 18.858667v172.202666c1.706667 0.682667 3.498667 1.28 5.290666 1.877334 0.170667 0.085333 0.341333 0.170667 0.512 0.170666z" fill="#FFE3E3" p-id="18974"></path><path d="M899.413333 614.485333v231.765334c10.581333-1.365333 20.650667-3.242667 29.952-5.376l1.024-0.256c1.877333-0.426667 3.669333-0.938667 5.461334-1.365334 0.512-0.170667 1.024-0.256 1.621333-0.426666 1.621333-0.426667 3.157333-0.853333 4.693333-1.28l1.792-0.512c1.536-0.426667 2.986667-0.938667 4.437334-1.365334 0.512-0.170667 1.109333-0.341333 1.621333-0.512 1.962667-0.682667 3.84-1.28 5.717333-2.048V660.906667l-56.32-46.421334z" fill="#FF9797" p-id="18975"></path><path d="M968.192 693.845333l-119.466667-98.56-119.381333 98.56-22.186667-26.88 141.568-116.906666 141.653334 116.906666z" fill="#05A336" p-id="18976"></path><path d="M848.725333 550.058667v45.226666l119.466667 98.56 22.186667-26.88z" fill="#05A336" p-id="18977"></path><path d="M808.448 729.6v117.504c12.117333 1.536 25.088 2.389333 38.656 2.389333 9.216 0 18.261333-0.426667 26.88-1.109333V730.453333c-9.301333 1.024-19.114667 1.621333-29.354667 1.621334-12.8 0-24.917333-0.853333-36.181333-2.474667z" fill="#FFF1B8" p-id="18978"></path><path d="M853.333333 849.493333c7.082667-0.170667 13.994667-0.512 20.650667-1.109333V730.453333c-6.656 0.768-13.568 1.194667-20.650667 1.450667v117.589333z" fill="#FCE665" p-id="18979"></path><path d="M806.997333 367.786667L802.133333 395.434667l25.429334-13.056 25.429333 13.056-4.864-27.648 20.736-19.712-28.672-4.096-12.629333-25.002667-12.629334 25.002667-28.672 4.096 20.736 19.712z" fill="#FFBC00" p-id="18980"></path><path d="M806.997333 367.786667L802.133333 395.434667l25.429334-13.056v-63.488l-12.714667 25.002666-28.586667 4.096z" fill="#E59200" p-id="18981"></path><path d="M940.885333 291.584l-28.757333 25.514667 38.314667 7.594666 16.128 35.584 18.261333-33.792 39.082667-3.498666-27.306667-28.757334 7.68-37.546666-34.816 16.042666-34.218667-19.968 5.632 38.826667z" fill="#FCE665" p-id="18982"></path><path d="M940.885333 291.584l-28.757333 25.514667 38.314667 7.68 53.930666-68.096-34.816 16.128-34.133333-20.053334z" fill="#FFBC00" p-id="18983"></path><path d="M823.04 404.565333h8.96v109.653334h-8.96z" fill="#7CE597" p-id="18984"></path><path d="M753.749333 225.536m-16.64 0a16.64 16.64 0 1 0 33.28 0 16.64 16.64 0 1 0-33.28 0Z" fill="#05A336" p-id="18985"></path><path d="M863.402667 514.218667l13.482666-0.426667c-3.754667-117.333333 68.010667-168.192 68.693334-168.704l-0.682667 0.341333-5.461333-12.288c-0.768 0.341333-80.042667 53.504-76.032 181.077334z" fill="#7CE597" p-id="18986"></path><path d="M923.477333 435.029333m-11.349333 0a11.349333 11.349333 0 1 0 22.698667 0 11.349333 11.349333 0 1 0-22.698667 0Z" fill="#05A336" p-id="18987"></path><path d="M512 122.538667L348.842667 285.610667v234.581333c0 22.186667 73.045333 40.192 163.157333 40.192s163.157333-18.005333 163.157333-40.192V285.610667L512 122.538667z" fill="#FF9797" p-id="18988"></path><path d="M382.378667 544.597333V252.16l-33.536 33.536v234.581333c0 9.130667 12.544 17.578667 33.536 24.32z" fill="#FFBCC5" p-id="18989"></path><path d="M602.88 213.418667v340.138666c43.605333-7.253333 72.277333-19.456 72.277333-33.365333V285.610667l-72.277333-72.192z" fill="#FF7166" p-id="18990"></path><path d="M692.821333 327.082667L512 146.261333 331.178667 327.082667l-23.722667-23.722667L512 98.816l204.544 204.544z" fill="#05A336" p-id="18991"></path><path d="M512 98.816v47.445333l180.821333 180.821334 23.722667-23.722667z" fill="#05A336" p-id="18992"></path><path d="M516.778667 305.578667c-17.92 0-34.986667-0.853333-50.688-2.389334V428.373333c15.701333 1.536 32.768 2.389333 50.688 2.389334 14.336 0 28.16-0.512 41.130666-1.536V304.128c-12.970667 0.938667-26.794667 1.450667-41.130666 1.450667z" fill="#FFF1B8" p-id="18993"></path><path d="M528.981333 305.493333v125.098667c9.984-0.256 19.712-0.682667 28.928-1.365333V304.128c-9.301333 0.682667-18.944 1.109333-28.928 1.365333z" fill="#FCE665" p-id="18994"></path><path d="M512 371.712l-229.802667 166.4v330.496c0 31.232 102.912 56.576 229.802667 56.576s229.802667-25.344 229.802667-56.576V538.112L512 371.712z" fill="#FF9797" p-id="18995"></path><path d="M282.709333 872.192l0.512 1.792c0.170667 0.341333 0.256 0.682667 0.426667 1.024 0.256 0.512 0.512 1.109333 0.853333 1.621333 0.170667 0.341333 0.426667 0.682667 0.597334 1.024 0.341333 0.512 0.768 1.109333 1.194666 1.621334l0.768 1.024c0.597333 0.768 1.28 1.450667 2.048 2.218666 0.426667 0.426667 0.938667 0.853333 1.365334 1.28 0.512 0.426667 1.024 0.938667 1.621333 1.365334 0.512 0.426667 1.109333 0.853333 1.706667 1.28 0.512 0.341333 1.024 0.768 1.536 1.109333 0.682667 0.426667 1.28 0.938667 2.048 1.365333 0.512 0.341333 1.024 0.597333 1.536 0.938667 0.768 0.512 1.536 0.938667 2.389333 1.450667 0.426667 0.256 0.853333 0.512 1.28 0.682666 3.328 1.792 6.997333 3.584 11.008 5.290667a2.56 2.56 0 0 1 0.682667 0.341333c1.28 0.512 2.645333 1.109333 4.010666 1.621334 0.426667 0.170667 0.768 0.341333 1.194667 0.426666 1.365333 0.512 2.816 1.024 4.181333 1.536 0.341333 0.170667 0.768 0.256 1.109334 0.426667 1.536 0.512 3.072 1.024 4.693333 1.621333V503.978667l-47.189333 34.218666v330.496c0 0.938667 0.085333 1.792 0.256 2.645334 0 0.256 0.085333 0.512 0.170666 0.853333z" fill="#FFBCC5" p-id="18996"></path><path d="M741.802667 538.112L640 464.384v451.157333c0.597333-0.085333 1.28-0.256 1.877333-0.341333 2.048-0.341333 4.096-0.682667 6.058667-1.024 0.853333-0.170667 1.621333-0.256 2.474667-0.426667 2.304-0.426667 4.608-0.853333 6.912-1.365333 0.768-0.170667 1.536-0.341333 2.304-0.426667 1.877333-0.426667 3.669333-0.768 5.546666-1.194666 0.597333-0.170667 1.28-0.256 1.877334-0.426667 2.218667-0.512 4.352-1.024 6.4-1.536l2.133333-0.512c2.048-0.512 4.096-1.024 6.144-1.621333 0.426667-0.085333 0.853333-0.256 1.365333-0.341334 1.706667-0.512 3.498667-0.938667 5.12-1.450666 0.597333-0.170667 1.194667-0.341333 1.877334-0.512 1.877333-0.597333 3.754667-1.194667 5.546666-1.706667l1.536-0.512c1.536-0.512 3.072-1.024 4.522667-1.536 0.426667-0.170667 0.853333-0.256 1.28-0.426667 1.706667-0.597333 3.328-1.28 4.949333-1.877333 0.512-0.170667 0.938667-0.341333 1.365334-0.597333 1.621333-0.682667 3.157333-1.365333 4.693333-2.048 0.170667-0.085333 0.341333-0.170667 0.597333-0.256 1.365333-0.597333 2.730667-1.28 4.010667-1.877334 0.341333-0.170667 0.768-0.341333 1.109333-0.512 1.365333-0.682667 2.645333-1.365333 3.925334-2.133333l0.768-0.512c1.109333-0.682667 2.133333-1.28 3.157333-1.962667 0.256-0.170667 0.426667-0.256 0.682667-0.426666 1.109333-0.768 2.133333-1.536 3.072-2.218667a2.304 2.304 0 0 0 0.682666-0.597333c0.938667-0.768 1.877333-1.536 2.730667-2.389334l0.085333-0.085333c0.768-0.768 1.536-1.536 2.218667-2.304 0.170667-0.170667 0.341333-0.341333 0.426667-0.512 0.682667-0.768 1.28-1.621333 1.792-2.389333 0.085333-0.170667 0.170667-0.256 0.256-0.426667 0.426667-0.768 0.853333-1.536 1.194666-2.218667 0.085333-0.170667 0.170667-0.256 0.170667-0.426666 0.341333-0.853333 0.597333-1.621333 0.768-2.474667 0-0.170667 0.085333-0.341333 0.085333-0.597333 0.170667-0.853333 0.256-1.706667 0.256-2.56l-0.170666-330.666667z" fill="#FF7166" p-id="18997"></path><path d="M763.904 577.621333L512 395.264 260.096 577.621333l-22.357333-30.805333L512 348.245333l274.261333 198.570667z" fill="#05A336" p-id="18998"></path><path d="M512 348.245333v47.018667l251.904 182.357333 22.357333-30.805333z" fill="#05A336" p-id="18999"></path><path d="M512 717.994667c-29.610667 0-57.941333-1.365333-83.968-3.925334v207.189334c26.026667 2.474667 54.272 3.925333 83.968 3.925333 23.722667 0 46.592-0.853333 68.096-2.56V715.52c-21.504 1.621333-44.373333 2.474667-68.096 2.474667z" fill="#FFF1B8" p-id="19000"></path><path d="M428.032 921.344c26.026667 2.474667 54.272 3.925333 83.968 3.925333" fill="#82AAFF" p-id="19001"></path><path d="M532.138667 717.824v207.189333c16.554667-0.341333 32.597333-1.109333 47.957333-2.304V715.52c-15.36 1.109333-31.402667 1.877333-47.957333 2.304z" fill="#FCE665" p-id="19002"></path><path d="M512 568.576m-55.296 0a55.296 55.296 0 1 0 110.592 0 55.296 55.296 0 1 0-110.592 0Z" fill="#FFBC00" p-id="19003"></path><path d="M547.84 526.592a55.278933 55.278933 0 0 1-48.469333 81.92c-13.653333 0-26.197333-5.034667-35.84-13.226667a55.236267 55.236267 0 0 0 103.68-26.624c0.085333-16.981333-7.509333-32-19.370667-42.069333z" fill="#E59200" p-id="19004"></path><path d="M492.458667 546.133333m-24.917334 0a24.917333 24.917333 0 1 0 49.834667 0 24.917333 24.917333 0 1 0-49.834667 0Z" fill="#FCE665" p-id="19005"></path></svg>