<?xml version="1.0" standalone="no"?><!DOCTYPE svg PUBLIC "-//W3C//DTD SVG 1.1//EN" "http://www.w3.org/Graphics/SVG/1.1/DTD/svg11.dtd"><svg t="1678869583181" class="icon" viewBox="0 0 1300 1024" version="1.1" xmlns="http://www.w3.org/2000/svg" p-id="1319" xmlns:xlink="http://www.w3.org/1999/xlink" width="253.90625" height="200"><path d="M784.014714 99.204787l10.903312 18.428134-21.294732-2.559463-14.179425 16.124617-4.095141-21.089976-19.707865-8.497417 18.735269-10.442609 2.04757-21.345922 15.715103 14.58894 20.936408-4.658223-9.060499 19.451919zM1067.142514 642.37403l-18.428134 10.903312 2.559463-21.294732-16.073428-14.179425 21.038786-4.14633 8.497417-19.656676 10.442609 18.735269 21.345922 1.996381-14.588939 15.715103 4.658222 20.936408-19.451918-9.00931z" fill="#13C463" p-id="1320"></path><path d="M1067.142514 642.37403l-18.428134 10.903312 2.559463-21.294732-16.073428-14.179425 21.038786-4.14633 8.497417-19.656676 10.442609 18.735269 21.345922 1.996381-14.588939 15.715103 4.658222 20.936408-19.451918-9.00931zM571.886418 100.023815l-17.404348-12.541369 20.526893-6.1939 6.501036-20.424515 12.234233 17.609105 21.448301-0.153567-12.950883 17.097213 6.756982 20.373325-20.270947-7.012928-17.250781 12.694936 0.409514-21.4483zM991.382408 784.373039l-21.192354 3.480869 10.135474-18.888837-9.828338-19.093594 21.089975 3.788005 15.100832-15.254399 2.917788 21.243543 19.144783 9.623581-19.298351 9.367634-3.224923 21.192354-14.844886-15.459156zM427.993407 156.792705l-20.78284-5.323683 16.892456-13.258019-1.330921-21.397111 17.762674 11.927098 19.963811-7.883146-5.886765 20.629272 13.667533 16.534131-21.397111 0.819028-11.517584 18.069809-7.371253-20.117379zM854.19519 896.42633l-20.731651-5.323683 16.841267-13.258019-1.330921-21.397111 17.813863 11.978287 19.912622-7.934335-5.835575 20.629272 13.667532 16.534131-21.4483 0.819028-11.517584 18.069809-7.371253-20.117379zM562.416405 923.607827l10.903313 18.428134-21.294733-2.559463-14.179425 16.073428-4.14633-21.038786-19.656676-8.497418 18.735269-10.442609 1.996381-21.345921 15.715103 14.588939 20.936408-4.658223-9.00931 19.451919zM242.790663 420.724532l-18.479324 10.954502 2.559464-21.294733-16.073428-14.230614 21.038786-4.095141 8.497417-19.707865 10.442609 18.735269 21.345922 2.047571-14.588939 15.715103 4.709412 20.936407-19.451919-9.060499z" fill="#13C463" p-id="1321"></path><path d="M242.790663 420.724532l-18.479324 10.954502 2.559464-21.294733-16.073428-14.230614 21.038786-4.095141 8.497417-19.707865 10.442609 18.735269 21.345922 2.047571-14.588939 15.715103 4.709412 20.936407-19.451919-9.060499zM700.780976 943.878774l-17.404348-12.490179 20.475704-6.24509 6.552225-20.424515 12.234233 17.609106 21.448301-0.102379-12.950883 17.097213 6.756982 20.322136-20.270947-7.012928-17.30197 12.694936 0.460703-21.4483zM303.552315 278.827902l-21.192354 3.42968 10.135473-18.888837-9.828338-19.042405 21.089976 3.788006 15.100832-15.2544 2.917787 21.243543 19.144784 9.623581-19.298351 9.316445-3.224924 21.243544-14.844885-15.459157z" fill="#13C463" p-id="1322"></path><path d="M407.620081 90.604991a486.861057 486.861057 0 0 1 504.521352 11.77353l25.031548-14.435371a511.892605 511.892605 0 0 0-797.528678 459.57718l25.031548-14.384182A486.758678 486.758678 0 0 1 407.620081 90.604991zM893.201406 933.333787a486.861057 486.861057 0 0 1-504.521351-11.619963l-24.980359 14.384183A511.892605 511.892605 0 0 0 1161.177185 476.572015L1136.401583 490.956197a486.912246 486.912246 0 0 1-243.200177 442.37759z" fill="#13C463" p-id="1323"></path><path d="M813.909242 795.839433a326.587482 326.587482 0 0 1-258.147441 29.536203l-29.792149 17.199592a353.205897 353.205897 0 0 0 472.73282-272.429245l-29.792149 17.148403A326.843428 326.843428 0 0 1 813.909242 795.839433zM486.861057 228.099345a326.587482 326.587482 0 0 1 258.14744-29.536204l29.79215-17.199591A353.205897 353.205897 0 0 0 302.016637 453.792794l29.843339-17.148402a326.485103 326.485103 0 0 1 155.001081-208.545047zM1288.280119 374.705387a53.441588 53.441588 0 0 1-14.384182 11.978287l-1044.260914 601.934514a53.799913 53.799913 0 0 1-73.4054-19.759055L7.217686 710.660503a53.697534 53.697534 0 0 1 19.707865-73.405399L1071.442411 35.32059a53.799913 53.799913 0 0 1 73.4054 19.759054l148.80718 258.19863a53.953481 53.953481 0 0 1-5.374872 61.427113zM32.198045 665.716333a28.102904 28.102904 0 0 0-2.815409 32.146855l148.80718 258.19863a28.154093 28.154093 0 0 0 38.443134 10.237852L1261.149811 364.518724a28.154093 28.154093 0 0 0 10.237852-38.443135l-148.755991-258.249819a28.102904 28.102904 0 0 0-38.391945-10.237852L39.722866 659.420054a27.130308 27.130308 0 0 0-7.524821 6.296279z" fill="#13C463" p-id="1324"></path><path d="M585.451572 548.134601l-136.419379 78.780272 38.135999 65.982957q7.831957 13.667533 21.294732 5.886765l112.616374-65.010361a20.73165 20.73165 0 0 0 9.828338-10.954502q2.610652-9.67477-16.687699-46.684605l18.172187-4.043952q20.475704 42.640654 17.916241 55.38678a35.525347 35.525347 0 0 1-15.91986 19.144784L512.967579 716.649647q-24.877981 14.332993-39.876434-11.619962L406.186782 589.188388l15.817482-9.111688L440.22764 611.711663l120.345952-69.463827-33.119452-57.43435-148.09053 85.486065-8.855743-15.356778 164.11277-94.751321zM657.065348 463.672322l46.428659-26.771984L758.522462 532.368309c1.023785-3.941573 2.149949-8.497417 3.276113-13.667532l1.740435-7.166497 1.791624-7.473632 14.077046 14.179425a336.467009 336.467009 0 0 1-16.687699 53.236831l-14.435371-10.698555a13.923479 13.923479 0 0 0-0.460703-12.029477l-50.677368-87.789581-31.020692 17.916241z m45.302495-68.388852l-4.402276 17.25078a250.315484 250.315484 0 0 0-56.308187-11.875908l4.760602-17.148402a299.71312 299.71312 0 0 1 55.949861 11.77353z m58.611703 88.813366l63.167548-36.344374a198.563141 198.563141 0 0 0-9.214067-20.475705l-21.704246-37.572917 15.356778-8.906931 21.704246 37.624106a185.407502 185.407502 0 0 1 9.418824 20.475704l53.441588-30.713556 8.395039 14.53775L844.622798 455.174904a49.14169 49.14169 0 0 1 1.228542 5.118926l0.767839 4.811791a375.422036 375.422036 0 0 1 83.489684 3.42968l-1.074974 18.479323a341.893071 341.893071 0 0 0-81.902817-6.449846 55.898672 55.898672 0 0 1-0.66546 9.470013q-5.118926 31.430206-37.163404 65.72701L793.433538 547.725087q31.481395-32.863505 35.832482-60.86403a104.477281 104.477281 0 0 0-0.767839-22.16495L769.374585 498.583397z m-55.386779-118.247191l48.834554-28.000526-9.367635-16.278185 15.356779-9.009309 9.418824 16.278184 49.192879-28.410039 8.241471 14.332993-48.936933 28.205282 11.05688 19.144784 53.236831-30.713557 5.835576 10.237853a321.673313 321.673313 0 0 1 9.828338 50.011907l-17.967431 4.504655a183.001606 183.001606 0 0 0-5.937954-40.439516L723.969711 419.751936l-8.497417-14.742507 58.304568-33.631344-11.056881-19.40073-48.834554 28.205283zM795.481108 445.346566l-0.921407 16.687699a181.977821 181.977821 0 0 0-46.735794-3.788005l1.33092-15.356778a175.988678 175.988678 0 0 1 46.326281 2.457084z m2.713031-32.914694l-1.074975 15.868671a156.024866 156.024866 0 0 0-43.920385-3.378492l1.38211-14.896074a195.389407 195.389407 0 0 1 43.61325 2.405895z" fill="#13C463" p-id="1325"></path></svg>