<?xml version="1.0" standalone="no"?><!DOCTYPE svg PUBLIC "-//W3C//DTD SVG 1.1//EN" "http://www.w3.org/Graphics/SVG/1.1/DTD/svg11.dtd"><svg t="1678443707835" class="icon" viewBox="0 0 1295 1024" version="1.1" xmlns="http://www.w3.org/2000/svg" p-id="16249" xmlns:xlink="http://www.w3.org/1999/xlink" width="323.75" height="256"><path d="M641.802817 325.143331H84.838442a84.838442 84.838442 0 0 1-84.838442-84.838443V84.838442a84.838442 84.838442 0 0 1 84.838442-84.838442h419.314002z" fill="#488C02" p-id="16250"></path><path d="M84.838442 282.724109a42.419221 42.419221 0 0 1-42.419221-42.419221V84.838442a42.419221 42.419221 0 0 1 42.419221-42.419221h391.317316l101.594035 240.304888z" fill="#5B9B08" opacity=".7" p-id="16251"></path><path d="M0 169.676885h1054.966031a84.838442 84.838442 0 0 1 84.838443 84.838442v643.28749a84.838442 84.838442 0 0 1-84.838443 84.838442H84.838442a84.838442 84.838442 0 0 1-84.838442-84.838442V169.676885z" fill="#61BF0D" p-id="16252"></path><path d="M1102.263463 279.542668v593.869097a63.628832 63.628832 0 0 1-63.628832 63.628832H101.169843a63.628832 63.628832 0 0 1-63.628832-63.628832v-657.497929h1001.09362a63.628832 63.628832 0 0 1 63.628832 63.628832z" fill="#9FD856" opacity=".45" p-id="16253"></path><path d="M1036.937862 765.030655m-258.969345 0a258.969345 258.969345 0 1 0 517.938691 0 258.969345 258.969345 0 1 0-517.938691 0Z" fill="#F98026" p-id="16254"></path><path d="M1036.937862 765.030655m-228.427506 0a228.427506 228.427506 0 1 0 456.855013 0 228.427506 228.427506 0 1 0-456.855013 0Z" fill="#FB9032" p-id="16255"></path><path d="M1076.387738 816.9942v-171.373653a39.449876 39.449876 0 0 0-39.449876-39.449876A39.449876 39.449876 0 0 0 996.851698 645.620547v171.373653h-49.630488a19.724938 19.724938 0 0 0-13.998343 32.662801l89.716652 103.5029a19.937034 19.937034 0 0 0 30.117648 0l89.504556-103.5029a19.724938 19.724938 0 0 0-14.846727-32.662801z" fill="#D3D3D3" opacity=".45" p-id="16256"></path><path d="M1075.327258 797.905551v-166.071251A38.177299 38.177299 0 0 0 1036.937862 593.869097a38.177299 38.177299 0 0 0-38.389395 38.177299v166.071251h-48.570008a19.300746 19.300746 0 0 0-14.634631 31.814416l86.959403 100.321458a19.08865 19.08865 0 0 0 29.057167 0l87.171499-100.321458a19.300746 19.300746 0 0 0-14.634631-31.814416z" fill="#FFFFFF" p-id="16257"></path></svg>