<?xml version="1.0" standalone="no"?><!DOCTYPE svg PUBLIC "-//W3C//DTD SVG 1.1//EN" "http://www.w3.org/Graphics/SVG/1.1/DTD/svg11.dtd"><svg t="1681211795366" class="icon" viewBox="0 0 1024 1024" version="1.1" xmlns="http://www.w3.org/2000/svg" p-id="6882" xmlns:xlink="http://www.w3.org/1999/xlink" width="200" height="200"><path d="M512 141.21142578a370.78857422 370.78857422 0 1 1 0 741.57714844A370.78857422 370.78857422 0 0 1 512 141.21142578z m166.8548584 203.93371583a33.74176026 33.74176026 0 0 0-47.68341064-1e-8L512 464.39074707 392.82855224 345.1451416a33.74176026 33.74176026 0 0 0-47.68341063 47.68341064L464.39074707 512 345.1451416 631.17144776a33.74176026 33.74176026 0 0 0 47.68341064 47.68341063L512 559.60925293 631.17144776 678.8548584a33.74176026 33.74176026 0 0 0 47.68341063-47.68341064L559.60925293 512 678.8548584 392.82855224a33.74176026 33.74176026 0 0 0-1e-8-47.68341063z" p-id="6883"></path></svg>