<?xml version="1.0" standalone="no"?><!DOCTYPE svg PUBLIC "-//W3C//DTD SVG 1.1//EN" "http://www.w3.org/Graphics/SVG/1.1/DTD/svg11.dtd"><svg t="1678443634845" class="icon" viewBox="0 0 1024 1024" version="1.1" xmlns="http://www.w3.org/2000/svg" p-id="3088" xmlns:xlink="http://www.w3.org/1999/xlink" width="256" height="256"><path d="M527.36 865.28c-10.24 10.24-20.48 10.24-30.72 0l-158.72-163.84c-5.12-5.12-5.12-10.24-5.12-15.36 0-10.24 10.24-20.48 20.48-20.48h327.68c5.12 0 10.24 0 15.36 5.12 10.24 10.24 10.24 20.48 0 30.72l-168.96 163.84z" fill="#5AC8FA" p-id="3089"></path><path d="M512 1024c-5.12 0-15.36-5.12-20.48-5.12l-327.68-327.68c-10.24-10.24-10.24-25.6 0-35.84 10.24-10.24 25.6-10.24 35.84 0l281.6 281.6V25.6c5.12-15.36 15.36-25.6 30.72-25.6s25.6 10.24 25.6 25.6v911.36l281.6-281.6c10.24-10.24 25.6-10.24 35.84 0 10.24 10.24 10.24 25.6 0 35.84l-327.68 327.68c0 5.12-10.24 5.12-15.36 5.12z" fill="" p-id="3090"></path></svg>