<?xml version="1.0" standalone="no"?><!DOCTYPE svg PUBLIC "-//W3C//DTD SVG 1.1//EN" "http://www.w3.org/Graphics/SVG/1.1/DTD/svg11.dtd"><svg height="123" legacy-metrics="false" node-id="1" sillyvg="true" template-height="123" template-width="130" version="1.1" viewBox="0 0 130 123" width="130" xmlns="http://www.w3.org/2000/svg" xmlns:xlink="http://www.w3.org/1999/xlink"><defs node-id="61"><linearGradient gradientUnits="objectBoundingBox" id="linear-gradient" node-id="3" x1="0.534" x2="0.534" y1="0.947" y2="-0.724"><stop offset="0" stop-color="#ffcccc" stop-opacity="0"></stop><stop offset="0.479" stop-color="#ffb6b6" stop-opacity="0.573"></stop><stop offset="1" stop-color="#ffa5a5"></stop></linearGradient><linearGradient gradientUnits="objectBoundingBox" id="linear-gradient-2" node-id="7" x1="0.5" x2="0.5" y1="0" y2="0.921"><stop offset="0" stop-color="#ffe0e1"></stop><stop offset="1" stop-color="#ffffff" stop-opacity="0"></stop></linearGradient><linearGradient gradientUnits="objectBoundingBox" id="linear-gradient-4" node-id="10" x1="-0.76799995" x2="-0.76799995" y1="2.1979997" y2="1.2159998"><stop offset="0" stop-color="#ffffff" stop-opacity="0"></stop><stop offset="0.645" stop-color="#ffa5a5" stop-opacity="0.969"></stop><stop offset="1" stop-color="#ffb7b7"></stop></linearGradient><linearGradient gradientUnits="objectBoundingBox" id="linear-gradient-5" node-id="14" x1="0.8879999" x2="-1.1039997" y1="-0.5559999" y2="2.2359996"><stop offset="0" stop-color="#ffffff"></stop><stop offset="0.394" stop-color="#ffafaf"></stop><stop offset="1" stop-color="#ffa3a3"></stop></linearGradient><linearGradient gradientUnits="objectBoundingBox" id="linear-gradient-8" node-id="22" x1="-2.7099998" x2="-2.7099998" y1="1.8329998" y2="0.83299994"><stop offset="0" stop-color="#e1e7f2"></stop><stop offset="1" stop-color="#ffffff"></stop></linearGradient><linearGradient gradientUnits="objectBoundingBox" id="linear-gradient-9" node-id="25" x1="-2.6019998" x2="-3.0219998" y1="2.3409998" y2="1.5679998"><stop offset="0" stop-color="#ffbaba"></stop><stop offset="1" stop-color="#fda6a6"></stop></linearGradient><linearGradient gradientUnits="objectBoundingBox" id="linear-gradient-11" node-id="32" x1="-1.2829999" x2="-1.2829999" y1="1.7029998" y2="1.5889999"><stop offset="0" stop-color="#ffb1b1"></stop><stop offset="1" stop-color="#ffadad"></stop></linearGradient></defs><g node-id="63"><g node-id="65"><path d="M 33.54 105.41 L 31.57 104.87 L 29.90 104.74 L 26.31 105.07 L 24.24 105.30 L 21.45 105.41 L 16.52 105.13 L 12.30 104.40 L 9.61 103.61 L 7.48 102.72 L 5.80 101.75 L 4.37 100.51 L 3.60 99.28 L 3.33 98.02 L 3.60 96.76 L 4.37 95.53 L 5.80 94.29 L 7.48 93.31 L 9.61 92.42 L 12.30 91.64 L 16.52 90.90 L 21.45 90.63 L 118.13 90.63 L 119.70 90.81 L 121.13 91.38 L 122.36 92.31 L 123.34 93.55 L 123.95 95.01 L 124.15 96.54 L 123.95 98.07 L 123.34 99.53 L 122.36 100.77 L 121.13 101.70 L 119.70 102.27 L 118.13 102.45 L 112.91 102.75 L 107.74 103.56 L 104.92 104.59 L 102.35 106.02 L 100.00 107.89 L 98.38 109.48 L 93.88 113.26 L 90.81 115.46 L 87.01 117.78 L 82.91 119.83 L 78.31 121.56 L 75.11 122.41 L 71.77 122.94 L 68.28 123.15 L 63.47 122.96 L 59.01 122.44 L 54.88 121.63 L 50.82 120.46 L 47.31 119.08 L 44.28 117.50 L 41.49 115.57 L 39.37 113.56 L 37.82 111.45 L 37.26 109.60 L 36.92 108.50 L 36.29 107.34 L 35.30 106.34 L 33.54 105.41 Z" fill="url(#linear-gradient)" fill-rule="nonzero" group-id="1,3" id="路径_16639" node-id="38" stroke-linecap="butt" stroke-width="1" target-height="32.521004" target-width="120.822754" target-x="3.3269043" target-y="90.62702"></path><path d="M 0.00 81.76 L 15.00 83.42 L 35.80 81.76 L 44.09 86.19 L 44.95 86.47 L 46.75 87.22 L 47.66 87.74 L 48.30 88.28 L 48.61 88.90 L 48.42 89.53 L 47.72 90.11 L 46.37 90.79 L 43.13 91.92 L 40.14 92.72 L 38.83 93.03 L 32.37 91.18 L 27.34 92.25 L 22.25 92.86 L 17.11 93.03 L 11.68 92.52 L 6.34 91.60 L 1.05 90.26 Z" fill="#ffe6e6" fill-rule="nonzero" group-id="1,3" id="路径_16643" node-id="39" stroke-linecap="butt" stroke-width="1" target-height="11.272003" target-width="48.611267" target-x="0.000030517578" target-y="81.75702"></path><path d="M 1.33 89.96 L 6.59 91.36 L 11.92 92.32 L 17.34 92.84 L 21.00 92.77 L 23.59 92.44 L 28.02 91.46 L 30.12 91.07 L 32.66 90.90 L 34.47 91.02 L 35.38 91.25 L 36.04 91.63 L 36.38 92.00 L 37.10 92.69 L 37.69 92.85 L 38.98 92.84 L 41.01 92.48 L 43.16 91.83 L 46.80 90.30 L 48.37 89.52 L 48.37 98.57 L 46.76 99.06 L 43.16 99.92 L 41.11 100.20 L 39.35 100.23 L 38.26 100.04 L 37.74 99.79 L 37.18 99.01 L 36.66 98.17 L 36.16 97.85 L 35.12 97.56 L 33.56 97.44 L 32.04 97.57 L 28.90 98.18 L 27.22 98.45 L 25.29 98.57 L 23.08 98.43 L 21.69 98.11 L 20.00 97.76 L 16.89 97.56 L 10.81 97.65 L 5.36 97.94 L 3.00 98.11 L 2.66 96.65 L 2.01 93.66 L 1.51 91.04 L 1.33 89.96 Z" fill="#fdbbbb" fill-rule="nonzero" group-id="1,3" id="路径_16644" node-id="40" stroke-linecap="butt" stroke-width="1" target-height="10.717003" target-width="47.036" target-x="1.3300306" target-y="89.51702"></path><path d="M 63.48 112.88 L 70.13 109.37 L 71.12 110.85 L 71.41 112.36 L 71.12 113.88 L 70.64 114.67 L 69.98 115.28 L 69.19 115.70 L 68.29 115.90 L 67.80 115.80 L 67.50 115.57 L 67.03 114.89 L 66.72 114.57 L 66.21 114.30 L 65.34 114.18 L 64.65 114.28 L 64.01 114.39 L 63.48 114.30 L 63.19 113.93 L 63.22 113.46 L 63.48 112.88 Z" fill="#fdbbbb" fill-rule="nonzero" group-id="1,3" id="路径_16655" node-id="41" stroke-linecap="butt" stroke-width="1" target-height="6.528" target-width="8.220112" target-x="63.192173" target-y="109.37102"></path><path d="M 64.95 110.42 L 70.13 109.25 L 70.31 111.10 L 70.13 112.95 L 69.74 113.70 L 69.37 114.01 L 68.91 114.13 L 68.28 114.11 L 67.90 113.99 L 67.68 113.76 L 67.29 113.13 L 67.00 112.86 L 66.49 112.64 L 64.97 112.62 L 63.48 112.95 Z" fill="#ffe6e6" fill-rule="nonzero" group-id="1,3" id="路径_16656" node-id="42" stroke-linecap="butt" stroke-width="1" target-height="4.884079" target-width="6.836811" target-x="63.476032" target-y="109.24802"></path><path d="M 71.92 100.66 L 77.95 98.21 L 78.43 101.96 L 78.43 102.69 L 78.15 104.12 L 77.77 104.75 L 77.15 105.13 L 75.13 105.32 L 72.94 105.23 L 71.92 105.13 Z" fill="#fdbbbb" fill-rule="nonzero" group-id="1,3" id="路径_16657" node-id="43" stroke-linecap="butt" stroke-width="1" target-height="7.10775" target-width="6.5154266" target-x="71.91773" target-y="98.21185"></path><path d="M 75.58 98.16 L 76.73 97.85 L 77.89 98.16 L 77.82 98.94 L 77.56 99.65 L 77.11 100.27 L 76.50 100.75 L 75.68 100.97 L 74.67 101.04 L 72.82 100.89 L 71.97 100.75 L 73.69 99.35 L 75.58 98.16 Z" fill="#ffe6e6" fill-rule="nonzero" group-id="1,3" id="路径_16658" node-id="44" stroke-linecap="butt" stroke-width="1" target-height="3.1848145" target-width="5.9129944" target-x="71.97203" target-y="97.85276"></path><g node-id="66"><path d="M 130.08 82.87 L 114.82 84.53 L 96.55 82.87 L 92.84 84.99 L 89.26 87.30 L 86.74 88.78 L 85.74 89.31 L 85.21 89.73 L 85.02 90.23 L 85.33 91.00 L 85.96 91.57 L 87.15 92.21 L 90.04 93.21 L 92.71 93.89 L 93.89 94.14 L 99.55 92.29 L 112.97 94.14 L 123.81 92.29 L 126.79 87.81 Z" fill="#ffe6e6" fill-rule="nonzero" group-id="1,3,4" id="路径_16659" node-id="46" stroke-linecap="butt" stroke-width="1" target-height="11.271004" target-width="45.065216" target-x="85.018814" target-y="82.86602"></path><path d="M 125.21 91.71 L 118.54 92.70 L 111.82 93.17 L 108.76 93.13 L 106.59 92.97 L 102.88 92.47 L 99.01 92.19 L 96.75 92.39 L 95.95 92.79 L 95.35 93.14 L 93.72 93.17 L 89.43 92.31 L 85.27 91.00 L 85.27 96.07 L 89.32 96.66 L 93.41 96.91 L 94.63 96.75 L 95.03 96.56 L 95.49 96.00 L 95.84 95.78 L 96.94 95.55 L 98.88 95.52 L 100.80 95.71 L 105.16 96.07 L 106.69 95.99 L 107.18 95.81 L 107.92 95.63 L 110.25 95.55 L 114.40 95.63 L 118.93 95.81 L 122.57 95.99 L 124.06 96.07 L 123.75 95.20 L 124.06 94.32 L 125.21 91.71 Z" fill="#fdbbbb" fill-rule="nonzero" group-id="1,3,4" id="路径_16660" node-id="47" stroke-linecap="butt" stroke-width="1" target-height="5.913002" target-width="39.940002" target-x="85.26503" target-y="90.99602"></path></g></g><path d="M 5.97 80.95 L 5.97 80.95 L 5.45 80.74 L 4.88 80.05 L 4.23 78.52 L 3.57 75.94 L 2.99 72.15 L 2.65 68.03 L 2.52 63.18 L 2.65 58.33 L 2.99 54.21 L 3.57 50.42 L 4.23 47.84 L 4.88 46.31 L 5.45 45.62 L 5.97 45.41 L 7.12 45.30 L 8.20 44.94 L 9.18 44.35 L 10.01 43.55 L 10.91 42.19 L 11.54 40.71 L 11.90 39.14 L 11.95 37.51 L 12.21 33.39 L 12.88 29.96 L 13.95 26.85 L 15.17 24.58 L 16.66 22.78 L 18.04 21.89 L 19.60 21.76 L 20.48 21.52 L 21.50 20.81 L 22.27 19.97 L 22.83 19.00 L 23.15 17.92 L 23.22 16.78 L 23.45 12.21 L 24.04 8.31 L 25.04 4.76 L 26.21 2.29 L 27.24 0.95 L 28.24 0.24 L 29.26 -0.00 L 30.27 0.24 L 31.27 0.95 L 32.31 2.29 L 33.47 4.76 L 34.47 8.31 L 35.07 12.21 L 35.30 16.78 L 35.39 18.86 L 35.69 19.66 L 36.45 20.61 L 37.52 21.33 L 38.63 21.66 L 40.47 21.89 L 41.35 22.43 L 42.22 23.37 L 43.11 24.83 L 44.12 27.33 L 44.95 30.69 L 45.46 34.33 L 45.65 38.50 L 45.79 40.98 L 46.15 43.43 L 46.45 44.13 L 46.81 44.71 L 47.28 45.14 L 47.81 45.25 L 48.52 44.79 L 49.64 43.05 L 50.37 41.18 L 50.73 39.15 L 51.42 35.10 L 52.24 32.28 L 53.02 30.61 L 53.69 29.85 L 54.27 29.61 L 54.84 29.85 L 55.47 30.65 L 56.17 32.40 L 56.86 35.34 L 57.43 39.62 L 57.84 41.89 L 58.83 43.97 L 59.45 44.71 L 60.22 45.18 L 61.15 45.41 L 61.17 45.41 L 61.74 45.65 L 62.36 46.44 L 63.06 48.17 L 63.76 51.10 L 64.32 55.36 L 64.60 56.90 L 65.47 58.20 L 66.67 58.93 L 68.04 59.23 L 68.07 59.23 L 68.69 59.49 L 69.41 60.55 L 70.07 62.32 L 70.51 64.15 L 71.30 70.06 L 71.52 76.02 L 71.37 80.95 L 5.97 80.95 Z M 71.37 80.95 Z" fill="url(#linear-gradient-2)" fill-rule="nonzero" group-id="1" id="路径_16662" node-id="48" stroke-linecap="butt" stroke-width="1" target-height="80.952995" target-width="68.99902" target-x="2.5200195" target-y="-0.0020008087"></path><path d="M 116.59 80.95 L 80.11 80.95 L 79.89 76.19 L 80.01 72.32 L 80.50 68.51 L 81.36 64.73 L 82.02 62.93 L 82.96 61.26 L 83.78 60.39 L 84.91 59.99 L 84.95 59.99 L 86.88 59.71 L 88.70 59.00 L 89.38 58.49 L 89.90 57.84 L 90.23 57.09 L 90.36 56.25 L 91.18 52.16 L 92.19 49.32 L 93.15 47.72 L 94.05 46.92 L 94.95 46.65 L 95.98 46.40 L 96.63 46.05 L 97.82 44.94 L 98.77 43.64 L 99.45 42.19 L 99.84 40.60 L 100.84 36.72 L 102.04 33.98 L 103.12 32.44 L 104.08 31.66 L 104.99 31.40 L 105.89 31.67 L 106.79 32.48 L 107.75 34.09 L 108.77 36.95 L 109.58 41.07 L 109.93 42.64 L 110.60 44.02 L 111.63 45.26 L 112.64 46.01 L 113.75 46.47 L 115.00 46.65 L 115.03 46.65 L 115.92 46.91 L 116.82 47.72 L 117.78 49.31 L 118.79 52.15 L 119.61 56.25 L 119.74 57.09 L 120.08 57.84 L 120.59 58.49 L 121.27 59.00 L 123.09 59.71 L 125.03 59.99 L 125.06 59.99 L 126.19 60.39 L 127.01 61.26 L 127.95 62.93 L 128.61 64.73 L 129.47 68.50 L 129.96 72.32 L 130.08 76.19 L 129.86 80.95 Z M 129.87 80.95 Z M 80.11 80.95 Z" fill="url(#linear-gradient-2)" fill-rule="nonzero" group-id="1" id="路径_16663" node-id="49" stroke-linecap="butt" stroke-width="1" target-height="49.548004" target-width="50.195007" target-x="79.88904" target-y="31.403015"></path></g><g node-id="64"><path d="M 60.77 71.55 L 61.40 71.26 L 62.09 70.19 L 62.65 74.02 L 63.39 76.71 L 64.13 78.27 L 64.82 79.01 L 65.48 79.25 L 66.14 79.01 L 66.83 78.26 L 67.57 76.70 L 68.31 74.02 L 68.87 70.19 L 69.56 71.26 L 70.19 71.55 L 70.81 71.26 L 71.50 70.19 L 72.00 68.75 L 72.43 66.63 L 72.69 64.33 L 72.79 61.62 L 58.17 61.62 L 58.27 64.33 L 58.53 66.63 L 58.96 68.75 L 59.46 70.20 L 60.15 71.26 L 60.77 71.55 Z" fill="url(#linear-gradient-4)" fill-rule="nonzero" group-id="2" id="路径_8750" node-id="51" stroke-linecap="butt" stroke-width="0.99999994" target-height="17.633835" target-width="14.615906" target-x="58.174866" target-y="61.616455"></path><path d="M 55.18 46.54 L 52.52 46.80 L 50.00 47.57 L 47.68 48.81 L 45.61 50.51 L 43.91 52.57 L 42.67 54.90 L 41.91 57.42 L 41.64 60.08 L 55.18 60.08 Z" fill="url(#linear-gradient-5)" fill-rule="nonzero" group-id="2" id="路径_8751" node-id="52" stroke-linecap="butt" stroke-width="0.99999994" target-height="13.538284" target-width="13.5383" target-x="41.644806" target-y="46.54165"></path><path d="M 76.67 46.54 L 79.33 46.80 L 81.86 47.57 L 84.18 48.81 L 86.25 50.50 L 87.94 52.57 L 89.18 54.90 L 89.95 57.42 L 90.21 60.08 L 76.67 60.08 Z" fill="url(#linear-gradient-5)" fill-rule="nonzero" group-id="2" id="路径_8752" node-id="53" stroke-linecap="butt" stroke-width="0.99999994" target-height="13.538269" target-width="13.538269" target-x="76.674194" target-y="46.54097"></path><path d="M 77.52 61.15 L 79.04 56.06 L 79.93 50.87 L 80.20 45.56 L 79.94 40.54 L 79.26 35.99 L 78.19 31.87 L 76.65 27.90 L 74.88 24.69 L 72.91 22.14 L 71.12 20.49 L 69.30 19.36 L 67.43 18.69 L 65.48 18.43 L 63.52 18.69 L 61.65 19.36 L 59.83 20.49 L 58.05 22.14 L 56.07 24.70 L 54.30 27.90 L 52.76 31.87 L 51.69 35.99 L 51.01 40.54 L 50.75 45.56 L 51.02 50.87 L 51.91 56.06 L 53.43 61.15 Z" fill="none" group-id="2" id="路径_8753" node-id="54" stroke-linecap="butt" stroke-width="0.99999994" target-height="42.717743" target-width="29.445343" target-x="50.753082" target-y="18.434158"></path><path d="M 70.21 32.28 L 71.31 33.74 L 71.96 35.31 L 72.17 37.01 L 71.96 38.71 L 71.31 40.27 L 70.21 41.74 L 68.74 42.84 L 67.18 43.48 L 65.48 43.70 L 63.78 43.48 L 62.22 42.84 L 60.75 41.74 L 59.65 40.27 L 59.01 38.71 L 58.79 37.01 L 59.01 35.31 L 59.65 33.74 L 60.75 32.28 L 62.22 31.18 L 63.78 30.53 L 65.48 30.32 L 67.18 30.53 L 68.74 31.18 L 70.21 32.28 Z" fill="url(#linear-gradient-8)" fill-rule="nonzero" group-id="2" id="椭圆_89" node-id="55" stroke-linecap="butt" stroke-width="0.99999994" target-height="13.379997" target-width="13.380005" target-x="58.79071" target-y="30.319141"></path><path d="M 69.09 33.40 L 69.93 34.52 L 70.42 35.71 L 70.58 37.01 L 70.42 38.31 L 69.93 39.50 L 69.09 40.61 L 67.97 41.46 L 66.78 41.94 L 65.48 42.11 L 64.18 41.94 L 62.99 41.46 L 61.88 40.61 L 61.03 39.50 L 60.55 38.31 L 60.38 37.01 L 60.55 35.71 L 61.03 34.52 L 61.88 33.40 L 62.99 32.56 L 64.18 32.07 L 65.48 31.91 L 66.78 32.07 L 67.97 32.56 L 69.09 33.40 Z" fill="url(#linear-gradient-9)" fill-rule="nonzero" group-id="2" id="椭圆_90" node-id="56" stroke-linecap="butt" stroke-width="0.99999994" target-height="10.197998" target-width="10.197998" target-x="60.3817" target-y="31.910156"></path><path d="M 75.97 26.55 L 74.49 24.12 L 72.92 22.16 L 71.26 20.62 L 69.38 19.40 L 67.47 18.69 L 65.48 18.43 L 63.48 18.68 L 61.57 19.39 L 59.69 20.61 L 58.04 22.16 L 56.47 24.11 L 54.98 26.55 Z" fill="none" group-id="2" id="路径_8754" node-id="57" stroke-linecap="butt" stroke-width="0.99999994" target-height="8.112671" target-width="20.985535" target-x="54.9823" target-y="18.433441"></path><path d="M 65.48 61.15 L 55.18 61.18 L 56.29 62.87 L 65.48 62.87 L 74.68 62.87 L 75.79 61.18 Z" fill="url(#linear-gradient-11)" fill-rule="nonzero" group-id="2" id="路径_8755" node-id="58" stroke-linecap="butt" stroke-width="0.99999994" target-height="1.7203369" target-width="20.612183" target-x="55.176758" target-y="61.1512"></path><path d="M 66.09 56.26 L 66.01 58.91 L 65.79 59.92 L 65.48 60.08 L 65.17 59.92 L 64.95 58.91 L 64.87 56.26 L 64.95 52.08 L 65.17 48.23 L 65.36 46.80 L 65.48 46.54 L 65.60 46.80 L 65.79 48.23 L 66.01 52.08 L 66.09 56.26 Z" fill="#ffffff" fill-rule="nonzero" group-id="2" id="路径_8756" node-id="59" stroke-linecap="butt" stroke-width="0.99999994" target-height="13.538269" target-width="1.2261353" target-x="64.86694" target-y="46.54164"></path></g></svg>