<?xml version="1.0" standalone="no"?><!DOCTYPE svg PUBLIC "-//W3C//DTD SVG 1.1//EN" "http://www.w3.org/Graphics/SVG/1.1/DTD/svg11.dtd"><svg height="800" legacy-metrics="false" node-id="1" sillyvg="true" template-height="800" template-width="800" version="1.1" viewBox="0 0 800 800" width="800" xmlns="http://www.w3.org/2000/svg" xmlns:xlink="http://www.w3.org/1999/xlink"><defs node-id="48"><linearGradient gradientUnits="userSpaceOnUse" id="SVGID_1_" node-id="22" x1="389.424" x2="389.424" y1="89.0852" y2="708.0767"><stop offset="0.0000001918004" stop-color="#f6f8ff"></stop><stop offset="1" stop-color="#d9e3ff"></stop></linearGradient><linearGradient gradientUnits="userSpaceOnUse" id="SVGID_2_" node-id="31" x1="525.9603" x2="599.9384" y1="369.6057" y2="497.7396"><stop offset="0" stop-color="#d4e1ff"></stop><stop offset="1" stop-color="#7798ff"></stop></linearGradient><linearGradient gradientUnits="userSpaceOnUse" id="SVGID_3_" node-id="35" x1="292.2451" x2="472.5025" y1="300.1033" y2="612.3182"><stop offset="0" stop-color="#d4e1ff"></stop><stop offset="1" stop-color="#7798ff"></stop></linearGradient><linearGradient gradientUnits="userSpaceOnUse" id="SVGID_4_" node-id="42" x1="338.4004" x2="428.0891" y1="174.4949" y2="329.8404"><stop offset="0" stop-color="#d4e1ff"></stop><stop offset="1" stop-color="#7798ff"></stop></linearGradient></defs><g node-id="114"><path d="M 687.25 169.06 C 687.25 179.98 678.39 188.84 667.47 188.84 C 656.55 188.84 647.69 179.98 647.69 169.06 C 647.69 158.14 656.55 149.28 667.47 149.28 C 678.39 149.28 687.25 158.14 687.25 169.06 Z" fill="#f3f6ff" fill-rule="nonzero" group-id="1" node-id="78" stroke="none" target-height="39.559998" target-width="39.559998" target-x="647.69" target-y="149.28"></path><path d="M 119.13 620.86 C 119.13 631.78 110.27 640.64 99.35 640.64 C 88.43 640.64 79.57 631.78 79.57 620.86 C 79.57 609.94 88.43 601.08 99.35 601.08 C 110.27 601.08 119.13 609.94 119.13 620.86 Z" fill="#dfe7ff" fill-rule="nonzero" group-id="1" node-id="80" stroke="none" target-height="39.559998" target-width="39.559998" target-x="79.57" target-y="601.08"></path><path d="M 220.48 682.86 C 213.10 682.86 207.10 676.86 207.10 669.48 C 207.10 662.10 213.10 656.10 220.48 656.10 C 227.86 656.10 233.86 662.10 233.86 669.48 C 233.86 676.86 227.86 682.86 220.48 682.86 Z M 220.48 662.52 C 216.65 662.52 213.53 665.64 213.53 669.47 C 213.53 673.30 216.65 676.42 220.48 676.42 C 224.31 676.42 227.43 673.30 227.43 669.47 C 227.43 665.64 224.31 662.52 220.48 662.52 Z" fill="#dfe7ff" fill-rule="nonzero" group-id="1" node-id="82" stroke="none" target-height="26.76001" target-width="26.759995" target-x="207.1" target-y="656.1"></path><path d="M 598.91 109.72 L 578.93 109.72 L 578.93 89.74 C 578.93 86.08 575.97 83.12 572.31 83.12 C 568.65 83.12 565.69 86.08 565.69 89.74 L 565.69 109.72 L 545.71 109.72 C 542.05 109.72 539.09 112.68 539.09 116.34 C 539.09 120.00 542.05 122.96 545.71 122.96 L 565.69 122.96 L 565.69 142.94 C 565.69 146.60 568.65 149.56 572.31 149.56 C 575.97 149.56 578.93 146.60 578.93 142.94 L 578.93 122.96 L 598.91 122.96 C 602.57 122.96 605.53 120.00 605.53 116.34 C 605.53 112.68 602.57 109.72 598.91 109.72 Z" fill="#f3f6ff" fill-rule="nonzero" group-id="1" node-id="84" stroke="none" target-height="66.439995" target-width="66.44" target-x="539.09" target-y="83.12"></path><path d="M 656.49 686.75 L 641.65 686.75 L 641.65 671.91 C 641.65 668.87 639.18 666.40 636.14 666.40 C 633.10 666.40 630.63 668.87 630.63 671.91 L 630.63 686.75 L 615.80 686.75 C 612.76 686.75 610.29 689.22 610.29 692.26 C 610.29 695.30 612.76 697.77 615.80 697.77 L 630.64 697.77 L 630.64 712.61 C 630.64 715.65 633.11 718.12 636.15 718.12 C 639.19 718.12 641.66 715.65 641.66 712.61 L 641.66 697.77 L 656.50 697.77 C 659.54 697.77 662.01 695.30 662.01 692.26 C 662.01 689.22 659.53 686.75 656.49 686.75 Z" fill="#dfe7ff" fill-rule="nonzero" group-id="1" node-id="86" stroke="none" target-height="51.71997" target-width="51.72003" target-x="610.29" target-y="666.4"></path><path d="M 121.42 125.16 C 130.12 133.86 144.24 133.86 152.94 125.16 L 152.94 125.16 C 161.64 116.46 161.64 102.34 152.94 93.64 L 146.28 86.98 C 137.58 78.28 123.46 78.28 114.76 86.98 L 114.76 86.98 C 106.06 95.68 106.06 109.80 114.76 118.50 L 121.42 125.16 Z" fill="#f3f6ff" fill-rule="nonzero" group-id="1" node-id="88" stroke="none" target-height="51.230003" target-width="51.229996" target-x="108.234985" target-y="80.454994"></path><path d="M 236.14 117.10 C 240.11 121.07 246.55 121.07 250.52 117.10 C 254.49 113.13 254.49 106.69 250.52 102.72 L 240.51 92.71 C 236.54 88.74 230.10 88.74 226.13 92.71 C 222.16 96.68 222.16 103.12 226.13 107.09 L 236.14 117.10 Z" fill="#f3f6ff" fill-rule="nonzero" group-id="1" node-id="90" stroke="none" target-height="30.27214" target-width="30.272186" target-x="223.1889" target-y="89.76892"></path><path d="M 85.07 317.82 C 89.04 321.79 95.48 321.79 99.45 317.82 L 99.45 317.82 C 103.42 313.85 103.42 307.41 99.45 303.44 L 89.44 293.43 C 85.47 289.46 79.03 289.46 75.06 293.43 C 71.09 297.40 71.09 303.84 75.06 307.81 L 85.07 317.82 Z" fill="#f3f6ff" fill-rule="nonzero" group-id="1" node-id="92" stroke="none" target-height="30.272186" target-width="30.272171" target-x="72.11891" target-y="290.4889"></path><path d="M 613.04 625.29 C 609.07 621.32 602.63 621.32 598.66 625.29 C 594.69 629.26 594.69 635.70 598.66 639.67 L 608.67 649.68 C 612.64 653.65 619.08 653.65 623.05 649.68 C 627.02 645.71 627.02 639.27 623.05 635.30 L 613.04 625.29 Z" fill="#dfe7ff" fill-rule="nonzero" group-id="1" node-id="94" stroke="none" target-height="30.272278" target-width="30.272156" target-x="595.71893" target-y="622.3488"></path><path d="M 733.42 633.78 C 733.42 651.88 718.75 666.55 700.65 666.55 C 682.55 666.55 667.88 651.88 667.88 633.78 C 667.88 615.68 682.55 601.01 700.65 601.01 C 718.75 601.01 733.42 615.68 733.42 633.78 Z" fill="#dfe7ff" fill-rule="nonzero" group-id="1" node-id="96" stroke="none" target-height="65.53998" target-width="65.53998" target-x="667.88" target-y="601.01"></path><path d="M 701.30 481.82 L 669.79 450.31 L 649.82 429.04 C 644.65 423.61 644.58 415.10 649.66 409.58 L 649.66 409.58 C 655.21 403.55 664.70 403.44 670.38 409.35 L 674.42 413.76 L 683.74 423.08 C 689.15 428.49 698.03 428.90 703.54 423.59 C 709.15 418.18 709.22 409.24 703.73 403.75 L 685.10 385.12 C 678.22 378.24 673.74 369.30 672.44 359.66 C 654.22 224.27 538.24 119.87 397.86 119.87 C 393.07 119.87 388.31 120.00 383.58 120.24 C 378.47 120.50 373.48 118.63 369.87 115.01 L 350.73 95.87 C 342.18 87.32 328.26 86.69 319.41 94.93 C 310.12 103.58 309.93 118.12 318.82 127.02 L 322.16 130.36 L 332.57 141.30 C 339.11 148.22 338.14 159.30 330.49 164.98 C 323.98 169.81 315.81 168.24 310.30 162.29 L 289.61 141.83 L 271.57 123.79 C 267.74 119.96 261.51 119.51 257.44 123.08 C 252.98 127.00 252.82 133.79 256.95 137.92 L 270.09 151.06 L 278.65 159.30 C 287.35 167.82 287.54 181.10 278.89 189.66 L 278.89 189.66 C 270.30 198.15 256.44 198.04 248.00 189.40 L 233.26 174.07 L 197.95 138.76 C 189.25 130.06 175.13 130.06 166.43 138.76 L 166.43 138.76 C 157.73 147.46 157.73 161.58 166.43 170.28 L 192.04 195.97 L 201.02 204.35 C 209.51 212.78 209.71 226.44 201.47 235.11 L 201.47 235.11 C 192.65 244.40 177.78 244.22 169.19 234.71 L 164.23 229.27 L 148.87 213.83 C 136.25 201.21 115.67 200.43 102.71 212.71 C 89.26 225.44 89.04 246.68 102.05 259.69 L 139.39 297.02 L 157.19 314.61 C 163.90 321.25 163.69 332.16 156.73 338.54 L 156.73 338.54 C 150.15 344.57 139.97 344.29 133.74 337.91 L 128.39 332.36 L 120.28 324.25 C 116.31 320.28 109.87 320.28 105.90 324.25 L 105.90 324.25 C 100.84 328.45 102.21 334.94 105.96 338.69 L 123.75 356.48 L 160.74 392.57 C 167.12 398.79 167.15 409.04 160.82 415.30 L 160.82 415.30 C 154.64 421.41 144.70 421.45 138.48 415.38 L 120.81 398.14 L 94.85 372.18 C 89.44 366.77 80.56 366.36 75.05 371.67 C 69.44 377.08 69.37 386.02 74.86 391.51 L 118.75 435.40 C 122.30 438.95 124.66 443.51 125.59 448.45 C 149.08 573.38 256.39 668.72 386.89 673.81 C 394.09 674.09 400.95 676.97 406.17 681.95 C 414.63 690.03 426.44 701.29 426.44 701.29 C 434.99 709.84 448.91 710.47 457.76 702.23 C 467.05 693.58 467.24 679.04 458.35 670.14 L 456.09 667.88 L 446.28 657.64 C 440.69 651.58 441.25 642.09 447.51 636.72 L 447.51 636.72 C 453.44 631.64 462.32 632.14 467.64 637.85 L 487.86 659.07 L 509.88 681.09 C 518.78 689.98 533.32 689.79 541.97 680.51 C 550.21 671.67 549.57 657.74 541.03 649.19 L 531.53 639.69 C 531.53 639.69 528.51 636.58 524.64 632.60 C 515.61 623.32 515.93 608.44 525.34 599.55 L 525.82 599.10 C 534.84 590.58 548.97 590.67 557.89 599.30 L 571.71 612.68 L 577.62 618.59 C 581.45 622.42 587.69 622.87 591.75 619.30 C 596.21 615.38 596.37 608.59 592.24 604.46 L 587.09 599.31 C 586.15 599.75 566.26 579.27 554.46 566.99 C 549.71 562.05 549.90 554.20 554.87 549.49 L 554.87 549.49 C 559.82 544.80 567.64 545.02 572.32 549.97 L 603.35 582.79 L 617.50 596.94 C 630.12 609.56 650.69 610.34 663.66 598.07 C 677.11 585.34 677.33 564.10 664.32 551.09 L 641.75 528.52 L 630.35 516.09 C 624.78 510.07 625.03 500.71 630.91 494.99 L 630.91 494.99 C 637.02 489.05 646.83 489.35 652.58 495.64 L 655.50 499.04 L 670.14 513.69 C 679.04 522.59 693.58 522.39 702.23 513.11 C 710.48 504.29 709.85 490.37 701.30 481.82 Z" fill="url(#SVGID_1_)" fill-rule="nonzero" group-id="1" node-id="98" stroke="none" target-height="618.92523" target-width="637.218" target-x="70.83269" target-y="89.117355"></path><path d="M 429.10 202.70 L 414.26 202.70 L 414.26 187.86 C 414.26 184.82 411.79 182.35 408.75 182.35 C 405.71 182.35 403.24 184.82 403.24 187.86 L 403.24 202.70 L 388.40 202.70 C 385.36 202.70 382.89 205.17 382.89 208.21 C 382.89 211.25 385.36 213.72 388.40 213.72 L 403.24 213.72 L 403.24 228.56 C 403.24 231.60 405.71 234.07 408.75 234.07 C 411.79 234.07 414.26 231.60 414.26 228.56 L 414.26 213.72 L 429.10 213.72 C 432.14 213.72 434.61 211.25 434.61 208.21 C 434.61 205.17 432.14 202.70 429.10 202.70 Z" fill="#ffffff" fill-rule="nonzero" group-id="1" node-id="100" stroke="none" target-height="51.72" target-width="51.71997" target-x="382.89" target-y="182.35"></path><path d="M 584.86 421.24 C 577.48 421.24 571.48 415.24 571.48 407.86 C 571.48 400.48 577.48 394.48 584.86 394.48 C 592.24 394.48 598.24 400.48 598.24 407.86 C 598.24 415.24 592.23 421.24 584.86 421.24 Z M 584.86 400.91 C 581.03 400.91 577.91 404.03 577.91 407.86 C 577.91 411.69 581.03 414.81 584.86 414.81 C 588.69 414.81 591.81 411.69 591.81 407.86 C 591.81 404.03 588.69 400.91 584.86 400.91 Z" fill="#ffffff" fill-rule="nonzero" group-id="1" node-id="102" stroke="none" target-height="26.75998" target-width="26.76001" target-x="571.48" target-y="394.48"></path><path d="M 222.21 523.28 C 214.83 523.28 208.83 517.28 208.83 509.90 C 208.83 502.52 214.83 496.52 222.21 496.52 C 229.59 496.52 235.59 502.52 235.59 509.90 C 235.58 517.28 229.58 523.28 222.21 523.28 Z M 222.21 502.95 C 218.38 502.95 215.26 506.07 215.26 509.90 C 215.26 513.73 218.38 516.85 222.21 516.85 C 226.04 516.85 229.16 513.73 229.16 509.90 C 229.16 506.07 226.04 502.95 222.21 502.95 Z" fill="#ffffff" fill-rule="nonzero" group-id="1" node-id="104" stroke="none" target-height="26.76004" target-width="26.759995" target-x="208.83" target-y="496.52"></path><path d="M 566.55 506.47 L 525.25 506.47 L 525.25 370.02 L 566.55 370.02 C 604.17 370.02 634.78 400.63 634.78 438.25 C 634.78 475.87 604.18 506.47 566.55 506.47 Z M 558.50 473.23 L 566.56 473.23 C 585.85 473.23 601.54 457.54 601.54 438.25 C 601.54 418.96 585.85 403.27 566.56 403.27 L 558.50 403.27 L 558.50 473.23 Z" fill="url(#SVGID_2_)" fill-rule="nonzero" group-id="1" node-id="106" stroke="none" target-height="136.45001" target-width="109.53003" target-x="525.25" target-y="370.02"></path><path d="M 438.09 613.46 L 315.63 613.46 C 248.85 613.46 194.71 559.32 194.71 492.54 L 194.71 378.67 C 194.71 357.38 211.96 340.13 233.25 340.13 L 520.47 340.13 C 541.76 340.13 559.01 357.38 559.01 378.67 L 559.01 492.53 C 559.01 559.32 504.87 613.46 438.09 613.46 Z" fill="url(#SVGID_3_)" fill-rule="nonzero" group-id="1" node-id="108" stroke="none" target-height="273.33002" target-width="364.3" target-x="194.71" target-y="340.13"></path><path d="M 322.04 490.30 C 309.63 490.30 297.12 488.38 284.67 484.51 C 259.20 476.59 242.79 463.10 242.10 462.53 C 235.04 456.66 234.08 446.18 239.95 439.12 C 245.81 432.08 256.25 431.10 263.31 436.92 C 265.40 438.62 312.59 476.15 367.95 444.29 C 406.54 419.94 441.38 421.09 463.85 426.36 C 488.89 432.23 510.30 446.36 516.53 456.63 C 521.29 464.48 518.79 474.70 510.94 479.46 C 503.31 484.09 493.44 481.85 488.52 474.52 C 486.52 472.38 474.78 462.84 455.31 458.51 C 431.88 453.30 408.38 458.03 385.46 472.56 L 384.89 472.90 C 364.91 484.47 343.65 490.30 322.04 490.30 Z M 488.09 473.87 C 488.09 473.88 488.10 473.88 488.10 473.89 C 488.10 473.88 488.09 473.88 488.09 473.87 Z" fill="#ffffff" fill-rule="nonzero" group-id="1" node-id="110" stroke="none" target-height="67.05652" target-width="282.83298" target-x="236.1077" target-y="423.24347"></path><path d="M 441.93 315.80 L 251.01 315.80 C 243.36 315.80 237.16 309.60 237.16 301.95 C 237.16 294.30 243.36 288.10 251.01 288.10 L 441.93 288.10 C 448.24 288.10 453.37 282.97 453.37 276.66 L 453.37 273.94 C 453.37 267.63 448.24 262.50 441.93 262.50 L 332.05 262.50 C 310.46 262.50 292.90 244.94 292.90 223.35 C 292.90 201.76 310.46 184.20 332.05 184.20 L 512.99 184.20 C 520.64 184.20 526.84 190.40 526.84 198.05 C 526.84 205.70 520.64 211.90 512.99 211.90 L 332.05 211.90 C 325.74 211.90 320.61 217.03 320.61 223.34 C 320.61 229.65 325.74 234.78 332.05 234.78 L 441.92 234.78 C 463.51 234.78 481.07 252.34 481.07 273.93 L 481.07 276.65 C 481.07 298.24 463.51 315.80 441.93 315.80 Z" fill="url(#SVGID_4_)" fill-rule="nonzero" group-id="1" node-id="112" stroke="none" target-height="131.59999" target-width="289.68002" target-x="237.16" target-y="184.2"></path></g></svg>